<svg xmlns="http://www.w3.org/2000/svg" xmlns:xlink="http://www.w3.org/1999/xlink" width="500" zoomAndPan="magnify" viewBox="0 0 375 374.999991" height="500" preserveAspectRatio="xMidYMid meet" version="1.0"><defs><g/><clipPath id="bfe08fbf02"><path d="M 187.5 0 C 83.945312 0 0 83.945312 0 187.5 C 0 291.054688 83.945312 375 187.5 375 C 291.054688 375 375 291.054688 375 187.5 C 375 83.945312 291.054688 0 187.5 0 Z M 187.5 0 " clip-rule="nonzero"/></clipPath></defs><g clip-path="url(#bfe08fbf02)"><rect x="-37.5" width="450" fill="#360136" y="-37.499999" height="449.999989" fill-opacity="1"/></g><g fill="#ffffff" fill-opacity="1"><g transform="translate(32.367776, 284.832502)"><g><path d="M 35 0 L 3.078125 0 L 85.6875 -198.515625 L 117.875 -198.515625 L 200.484375 0 L 168.84375 0 L 142.796875 -62.15625 L 60.765625 -62.15625 Z M 71.953125 -89.046875 L 131.59375 -89.046875 L 101.921875 -160.71875 Z M 71.953125 -89.046875 "/></g></g></g><g fill="#ffffff" fill-opacity="1"><g transform="translate(199.100778, 284.832502)"><g><path d="M 55.15625 -172.203125 L 1.40625 -172.203125 L 1.40625 -198.515625 L 138.3125 -198.515625 L 138.3125 -172.203125 L 84.28125 -172.203125 L 84.28125 0 L 55.15625 0 Z M 55.15625 -172.203125 "/></g></g></g></svg>